<?xml version="1.0" encoding="utf-8"?>
<!-- Generator: Adobe Illustrator 21.0.2, SVG Export Plug-In . SVG Version: 6.00 Build 0)  -->
<svg version="1.1" id="mnemonic" xmlns="http://www.w3.org/2000/svg" xmlns:xlink="http://www.w3.org/1999/xlink" x="0px" y="0px"
	 viewBox="0 0 240 234" enable-background="new 0 0 240 234" xml:space="preserve">
<radialGradient id="tile_1_" cx="93.6638" cy="-17.9998" r="383.6399" gradientUnits="userSpaceOnUse">
	<stop  offset="0" style="stop-color:#EC202B"/>
	<stop  offset="0.1463" style="stop-color:#E2202A"/>
	<stop  offset="0.3994" style="stop-color:#C51E26"/>
	<stop  offset="0.7265" style="stop-color:#981C20"/>
	<stop  offset="1" style="stop-color:#6D1A1B"/>
</radialGradient>
<rect id="tile_10_" x="0" y="0" fill-rule="evenodd" clip-rule="evenodd" fill="url(#tile_1_)" width="240" height="234"/>
<path fill="#FFFFFF" d="M197.3,132.1c0.2-1,0.4-2.1,0.6-3.2c-11,2-22,5.3-34.8,10.4c-1.6-14.5-1.5-29.1,0.3-43.6
	c6.8,3.1,28,10,34.8,11.3c-0.5-4.1-1.3-8.1-2.4-11.9c-7-1.9-14.5-4.5-22.9-7.9c1.2-8.3,2.4-16.4,4.5-24.3c-2.8-3-5.8-5.7-9.1-8.2
	c-3.4,9.9-6.7,31.7-7.4,36.7c-13.3-5.9-25.9-13.4-37.5-22.3c9.6-7.5,18.5-15.9,26.5-25.1c-1-0.4-2-0.8-3-1.2
	c-7.9,9-16.6,17.1-25.9,24.4C111.6,60.1,101.3,52,93.1,43c-1,0.4-2,0.8-3,1.2c8.3,9.4,18.8,17.6,28.3,25.1
	c-11.7,8.7-24.4,16-37.9,21.7c-1.2-10.7-5.5-27.7-8.7-36.2c-3.2,2.5-6.3,5.3-9.1,8.2c2.9,8.9,4.8,16.7,6,24.3
	c-7.8,3.1-16,6-24.5,8.2c-1.1,3.8-1.9,7.8-2.4,11.9c12.8-2.7,27.4-8.2,36.2-11.9c1.6,14.4,1.5,28.9-0.3,43.3
	c-12.1-4.9-24.5-7.7-35.6-9.6c0.2,1.1,0.4,2.1,0.6,3.2c10.9,2,22.9,4.7,34.6,9.6c-1.7,11.9-4.6,23.6-8.6,35c0.8,0.7,1.6,1.4,2.5,2
	c4.2-11.6,7.2-23.6,8.9-35.8c13.2,5.8,25.7,13.1,37.3,21.8c-9.8,7.4-19.3,15.9-27.3,25c3.7,1.5,7.6,2.8,11.5,3.7
	c5.7-6,11.9-11.7,18.4-16.9c6.7,5.4,12.8,11.1,18.3,16.8c4-0.9,7.8-2.2,11.5-3.7c-7.4-8.5-16.7-16.9-27.1-25
	c11.7-8.5,24.3-15.7,37.7-21.3c1.6,11.9,4.4,23.7,8.3,35.1c0.8-0.7,1.7-1.3,2.5-2c-3.7-11.2-6.4-22.7-7.9-34.3
	C175.9,137.4,186.7,134.1,197.3,132.1z M160.1,140.5c-14.1,5.8-28.3,13.8-39.9,22.6c-10.2-8.1-25.5-17.2-39.6-23.2
	c2-15.3,2.1-30.7,0.3-46c14.2-6,27.7-13.6,40-22.9c12.2,9.4,25.5,17.3,39.5,23.4C158.4,109.8,158.3,125.3,160.1,140.5z"/>
</svg>
