<?xml version="1.0" encoding="utf-8"?>
<!-- Generator: Adobe Illustrator 15.1.0, SVG Export Plug-In . SVG Version: 6.00 Build 0)  -->
<!DOCTYPE svg PUBLIC "-//W3C//DTD SVG 1.1//EN" "http://www.w3.org/Graphics/SVG/1.1/DTD/svg11.dtd">
<svg version="1.1" id="Layer_1" xmlns="http://www.w3.org/2000/svg" xmlns:xlink="http://www.w3.org/1999/xlink" x="0px" y="0px"
	 width="300px" height="300px" viewBox="0 0 300 300" enable-background="new 0 0 300 300" xml:space="preserve">
<g>
	<path fill-rule="evenodd" clip-rule="evenodd" fill="#6CB344" d="M139.814,299c-35.504-4.947-64.605-16.297-85.268-36.231
		c21.244,10.186,27.064-30.266,0-23.136c-6.693,4.22-6.693,14.26-5.82,18.916C23.117,234.395,5.656,202.237,1,157.275
		c0-4.365,0-8.73,0-13.096C11.768,58.912,59.785,11.186,145.635,1c2.91,0,5.82,0,8.73,0c45.689,3.347,76.828,21.39,102.729,44.816
		c6.111-7.712,9.021-18.771,15.715-26.046C283.576,52.946,293.471,86.995,299,125.409c0,12.514,0,25.027,0,37.541
		C286.195,241.815,240.215,287.505,160.186,299C153.492,299,146.508,299,139.814,299z M257.094,119.589
		c-12.514,41.615-39.869,72.754-72.463,93.998c-27.064,17.752-59.076,26.046-92.543,37.687
		c83.23-1.601,159.186,8.585,187.996-47.727c24.154-46.999,8.148-122.663-9.895-167.771c-18.334,29.684-46.854,57.185-91.379,65.042
		c-26.773,4.802-50.055,1.892-70.717,7.275c-32.885,8.439-63.441,35.213-62.277,78.138c0.582,16.733,9.021,42.343,27.646,44.816
		c11.059,1.455,29.102-6.548,43.361-10.186c15.715-4.074,31.139-7.275,41.906-11.495c48.018-19.353,77.992-54.129,98.363-91.233
		C257.094,118.716,257.094,119.152,257.094,119.589z"/>
</g>
</svg>
